<svg preserveAspectRatio="none" width="100%" height="100%" overflow="visible" style="display: block;" viewBox="0 0 36.0001 40.0001" fill="none" xmlns="http://www.w3.org/2000/svg">
<path id="Logo" d="M19.0589 3.84398e-05C19.6122 0.0182406 20.0865 0.223224 20.4818 0.615273L32.8353 13.3301C33.8203 14.4124 34.6135 15.5618 35.2152 16.7774C35.8017 18.0069 36.0596 19.2621 35.9886 20.543C35.9166 21.8533 35.3825 23.0325 34.3861 24.0791L28.1468 29.7686C27.7268 30.1339 27.2475 30.3007 26.7093 30.2686C26.17 30.2655 25.7024 30.067 25.307 29.6748C24.9127 29.2536 24.7171 28.759 24.721 28.1905C24.71 27.6359 24.9087 27.1538 25.3158 26.7442L30.7874 21.7735C31.3307 21.2079 31.6003 20.5456 31.596 19.7871C31.5917 19.0286 31.3959 18.3362 31.0081 17.711C30.7374 17.2957 30.415 16.8805 30.0453 16.462C30.038 16.4689 30.0322 16.4775 30.0247 16.4844L17.8548 28.1758C17.4338 28.5702 16.9397 28.7509 16.3724 28.7178C15.8041 28.7138 15.3224 28.5012 14.9281 28.0801C14.5336 27.6588 14.3381 27.1634 14.3421 26.5948C14.3753 26.0271 14.6027 25.546 15.0238 25.1514L18.0941 22.2002L15.681 19.7862L8.99448 26.5088C8.97325 26.5302 8.94973 26.549 8.92807 26.5694L18.8607 36.4727C19.2558 36.8938 19.4472 37.3895 19.4349 37.958C19.4079 38.5119 19.1916 38.9937 18.7855 39.4034C18.379 39.784 17.9056 39.9833 17.3665 40C16.813 40.0022 16.3316 39.8138 15.9222 39.4366L3.4183 26.9717C2.39412 25.9263 1.55838 24.807 0.912444 23.6143C0.281056 22.407 -0.0226193 21.1618 0.00131101 19.8789C0.0251617 18.567 0.515868 17.3696 1.47299 16.2871L7.95151 9.73734C8.35781 9.35693 8.83057 9.1733 9.36948 9.18559C9.90851 9.16883 10.3828 9.34929 10.7923 9.7266C11.2019 10.1331 11.4161 10.6201 11.433 11.1885C11.4643 11.7423 11.2836 12.232 10.8919 12.6563L5.15365 18.458C4.63155 19.0431 4.38719 19.715 4.41928 20.4727C4.45148 21.2305 4.67293 21.9149 5.08334 22.5254C5.3474 22.8996 5.65571 23.2717 6.00424 23.6455C6.02093 23.6276 6.03658 23.6085 6.05405 23.5909L18.3294 11.25C18.7357 10.8403 19.2231 10.6421 19.7914 10.6543C20.3595 10.6375 20.8485 10.8319 21.2581 11.2383C21.6678 11.6448 21.8809 12.1328 21.8978 12.7012C21.8854 13.2696 21.6761 13.7583 21.2699 14.168L18.015 17.4395L20.4818 19.9073L27.1712 13.4815L17.4359 3.46879C17.0568 3.0336 16.8833 2.53228 16.9164 1.96488C16.9636 1.41227 17.1985 0.938541 17.6195 0.543984C18.0396 0.178536 18.5196 -0.00303788 19.0589 3.84398e-05Z" fill="var(--fill-0, white)"/>
</svg>
